<svg width="197" height="198" viewBox="0 0 197 198" fill="none" xmlns="http://www.w3.org/2000/svg">
<path fill-rule="evenodd" clip-rule="evenodd" d="M72 0C60.9543 0 52 8.95435 52 20V27H7C3.13403 27 0 30.134 0 34C0 37.866 3.13403 41 7 41H43H52H145H152H190C193.866 41 197 37.866 197 34C197 30.134 193.866 27 190 27H145V20C145 8.95435 136.046 0 125 0H72ZM182 53.0001H14.9999C14.5999 53.1085 18.4587 90.1442 22.1688 125.748L22.1692 125.753C24.0602 143.901 25.9124 161.677 27.1418 174C29.4757 180.656 37.5 194 52.5 197.5H138.5C161.435 197.5 169.145 176.677 170.129 174.022L170.137 174C174 136.5 182 53.0001 182 53.0001ZM72.5 71C68.9102 71 66 73.9102 66 77.5V155.5C66 159.09 68.9102 162 72.5 162C76.0898 162 79 159.09 79 155.5V77.5C79 73.9102 76.0898 71 72.5 71ZM118 77.5C118 73.9102 120.91 71 124.5 71C128.09 71 131 73.9102 131 77.5V155.5C131 159.09 128.09 162 124.5 162C120.91 162 118 159.09 118 155.5V77.5Z" fill="url(#paint0_linear_204_17)"/>
<defs>
<linearGradient id="paint0_linear_204_17" x1="230.49" y1="-15.8" x2="23.1465" y2="179.2" gradientUnits="userSpaceOnUse">
<stop stop-color="#FF0000"/>
<stop offset="1" stop-color="#7729F7"/>
<stop offset="1" stop-color="#6100FF"/>
</linearGradient>
</defs>
</svg>
